<svg width="704" height="65" viewBox="0 0 704 65" fill="none" xmlns="http://www.w3.org/2000/svg">
<path d="M20.92 -3.8147e-06C24.9093 -3.8147e-06 28.1733 0.543996 30.712 1.632C33.2507 2.72 35.128 4.27733 36.344 6.304C37.56 8.30933 38.168 10.6987 38.168 13.472C38.168 16.2453 37.56 18.592 36.344 20.512C35.128 22.4107 33.2507 23.8613 30.712 24.864C28.1947 25.8667 24.9307 26.368 20.92 26.368H14.296V47.808H20.024V48H0.152V47.808H5.88V0.191998H0.152V-3.8147e-06H20.92ZM14.296 26.176H20.152C21.6027 26.176 22.8613 25.792 23.928 25.024C25.016 24.2347 25.912 23.2107 26.616 21.952C27.3413 20.672 27.8853 19.296 28.248 17.824C28.6107 16.3307 28.792 14.8693 28.792 13.44C28.792 12.0107 28.6107 10.528 28.248 8.992C27.8853 7.456 27.3413 6.02667 26.616 4.704C25.912 3.36 25.016 2.272 23.928 1.44C22.8613 0.607998 21.6027 0.191998 20.152 0.191998H14.296V26.176ZM67.0885 48.64C65.8512 48.64 64.7205 48.48 63.6965 48.16C62.6938 47.84 61.8832 47.2747 61.2645 46.464C60.6458 45.6533 60.3365 44.5333 60.3365 43.104V28.512C60.3365 26.976 60.2085 25.4293 59.9525 23.872C59.6965 22.3147 59.1525 21.0133 58.3205 19.968C57.4885 18.9227 56.2192 18.4 54.5125 18.4C53.4245 18.4 52.2832 18.5387 51.0885 18.816C49.9152 19.0933 48.8165 19.4987 47.7925 20.032C46.7898 20.544 45.9685 21.1947 45.3285 21.984C44.7098 22.7733 44.4005 23.7013 44.4005 24.768H44.2405C44.2405 23.5307 44.6885 22.5387 45.5845 21.792C46.4805 21.0453 47.4938 20.672 48.6245 20.672C49.8405 20.672 50.9072 21.0133 51.8245 21.696C52.7632 22.3787 53.2325 23.36 53.2325 24.64C53.2325 26.0693 52.7525 27.136 51.7925 27.84C50.8538 28.5227 49.7978 28.864 48.6245 28.864C47.3658 28.864 46.3098 28.512 45.4565 27.808C44.6032 27.0827 44.1765 26.0693 44.1765 24.768C44.1765 23.6587 44.5072 22.688 45.1685 21.856C45.8512 21.0027 46.7578 20.2987 47.8885 19.744C49.0192 19.1893 50.2885 18.7733 51.6965 18.496C53.1045 18.1973 54.5338 18.048 55.9845 18.048C59.1205 18.048 61.5525 18.528 63.2805 19.488C65.0298 20.448 66.2565 21.728 66.9605 23.328C67.6645 24.9067 68.0165 26.6347 68.0165 28.512V45.024C68.0165 45.7493 68.1765 46.3787 68.4965 46.912C68.8378 47.424 69.4458 47.68 70.3205 47.68C70.9818 47.68 71.7605 47.3707 72.6565 46.752C73.5738 46.112 74.3098 45.184 74.8645 43.968L74.9925 44.064C74.3952 45.472 73.3818 46.592 71.9525 47.424C70.5445 48.2347 68.9232 48.64 67.0885 48.64ZM51.0565 48.64C48.2832 48.64 46.0645 47.936 44.4005 46.528C42.7578 45.0987 41.9365 43.168 41.9365 40.736C41.9365 37.8773 43.1525 35.68 45.5845 34.144C48.0378 32.608 51.5365 31.84 56.0805 31.84H63.3125V32.032H57.3925C55.6645 32.032 54.2885 32.48 53.2645 33.376C52.2618 34.272 51.5365 35.3493 51.0885 36.608C50.6618 37.8667 50.4485 39.0507 50.4485 40.16C50.4485 41.184 50.5658 42.208 50.8005 43.232C51.0352 44.256 51.4405 45.1093 52.0165 45.792C52.5925 46.4747 53.3712 46.816 54.3525 46.816C55.4405 46.816 56.4325 46.4533 57.3285 45.728C58.2458 45.0027 58.9712 43.8827 59.5045 42.368C60.0592 40.832 60.3365 38.8587 60.3365 36.448H60.4965C60.4965 38.944 60.1552 41.1093 59.4725 42.944C58.8112 44.7573 57.7872 46.1653 56.4005 47.168C55.0138 48.1493 53.2325 48.64 51.0565 48.64ZM88.2815 18.56V47.808H91.7695V48H76.5695V47.808H80.6335V18.752H76.5695V18.56H88.2815ZM107.833 27.584V47.808H111.898V48H96.6975V47.808H100.154V27.936C100.154 26.144 100.079 24.5867 99.9295 23.264C99.7802 21.9413 99.4602 20.9173 98.9695 20.192C98.5002 19.4667 97.7535 19.104 96.7295 19.104C94.8948 19.104 93.4122 19.584 92.2815 20.544C91.1722 21.504 90.3295 22.7413 89.7535 24.256C89.1775 25.7707 88.7828 27.3707 88.5695 29.056C88.3775 30.7413 88.2815 32.2987 88.2815 33.728L88.1215 33.952C88.1215 32.3947 88.2175 30.6987 88.4095 28.864C88.6228 27.0293 89.0708 25.28 89.7535 23.616C90.4362 21.952 91.4922 20.5867 92.9215 19.52C94.3722 18.4533 96.3135 17.92 98.7455 17.92C101.178 17.92 103.044 18.336 104.346 19.168C105.668 20 106.575 21.152 107.066 22.624C107.578 24.0747 107.833 25.728 107.833 27.584ZM124.953 18.752L135.641 40.192L131.481 49.504L115.993 18.752H112.569V18.56H130.681V18.752H124.953ZM149.817 18.56V18.752H145.017L126.777 60.544C126.222 61.7813 125.571 62.784 124.825 63.552C124.099 64.32 123.054 64.704 121.689 64.704C121.006 64.704 120.323 64.544 119.641 64.224C118.979 63.9253 118.425 63.456 117.977 62.816C117.529 62.1973 117.305 61.408 117.305 60.448C117.305 59.5733 117.507 58.8053 117.913 58.144C118.318 57.4827 118.851 56.96 119.513 56.576C120.195 56.2133 120.963 56.032 121.817 56.032C122.627 56.032 123.385 56.256 124.089 56.704C124.814 57.152 125.39 57.7493 125.817 58.496C126.243 59.264 126.393 60.1387 126.265 61.12L144.761 18.752H138.777V18.56H149.817ZM177.339 48.64C176.101 48.64 174.971 48.48 173.947 48.16C172.944 47.84 172.133 47.2747 171.515 46.464C170.896 45.6533 170.587 44.5333 170.587 43.104V28.512C170.587 26.976 170.459 25.4293 170.203 23.872C169.947 22.3147 169.403 21.0133 168.571 19.968C167.739 18.9227 166.469 18.4 164.763 18.4C163.675 18.4 162.533 18.5387 161.339 18.816C160.165 19.0933 159.067 19.4987 158.043 20.032C157.04 20.544 156.219 21.1947 155.579 21.984C154.96 22.7733 154.651 23.7013 154.651 24.768H154.491C154.491 23.5307 154.939 22.5387 155.835 21.792C156.731 21.0453 157.744 20.672 158.875 20.672C160.091 20.672 161.157 21.0133 162.075 21.696C163.013 22.3787 163.483 23.36 163.483 24.64C163.483 26.0693 163.003 27.136 162.043 27.84C161.104 28.5227 160.048 28.864 158.875 28.864C157.616 28.864 156.56 28.512 155.707 27.808C154.853 27.0827 154.427 26.0693 154.427 24.768C154.427 23.6587 154.757 22.688 155.419 21.856C156.101 21.0027 157.008 20.2987 158.139 19.744C159.269 19.1893 160.539 18.7733 161.947 18.496C163.355 18.1973 164.784 18.048 166.235 18.048C169.371 18.048 171.803 18.528 173.531 19.488C175.28 20.448 176.507 21.728 177.211 23.328C177.915 24.9067 178.267 26.6347 178.267 28.512V45.024C178.267 45.7493 178.427 46.3787 178.747 46.912C179.088 47.424 179.696 47.68 180.571 47.68C181.232 47.68 182.011 47.3707 182.907 46.752C183.824 46.112 184.56 45.184 185.115 43.968L185.243 44.064C184.645 45.472 183.632 46.592 182.203 47.424C180.795 48.2347 179.173 48.64 177.339 48.64ZM161.307 48.64C158.533 48.64 156.315 47.936 154.651 46.528C153.008 45.0987 152.187 43.168 152.187 40.736C152.187 37.8773 153.403 35.68 155.835 34.144C158.288 32.608 161.787 31.84 166.331 31.84H173.563V32.032H167.642C165.915 32.032 164.539 32.48 163.515 33.376C162.512 34.272 161.787 35.3493 161.339 36.608C160.912 37.8667 160.699 39.0507 160.699 40.16C160.699 41.184 160.816 42.208 161.051 43.232C161.285 44.256 161.691 45.1093 162.267 45.792C162.843 46.4747 163.621 46.816 164.603 46.816C165.691 46.816 166.683 46.4533 167.579 45.728C168.496 45.0027 169.221 43.8827 169.755 42.368C170.309 40.832 170.587 38.8587 170.587 36.448H170.747C170.747 38.944 170.405 41.1093 169.723 42.944C169.061 44.7573 168.037 46.1653 166.651 47.168C165.264 48.1493 163.483 48.64 161.307 48.64ZM198.532 18.56V47.808H202.02V48H186.82V47.808H190.884V18.752H186.82V18.56H198.532ZM218.083 27.584V47.808H222.148V48H206.948V47.808H210.404V27.936C210.404 26.144 210.329 24.5867 210.18 23.264C210.03 21.9413 209.71 20.9173 209.22 20.192C208.75 19.4667 208.004 19.104 206.98 19.104C205.145 19.104 203.662 19.584 202.532 20.544C201.422 21.504 200.58 22.7413 200.004 24.256C199.428 25.7707 199.033 27.3707 198.82 29.056C198.628 30.7413 198.532 32.2987 198.532 33.728L198.372 33.952C198.372 32.3947 198.468 30.6987 198.66 28.864C198.873 27.0293 199.321 25.28 200.004 23.616C200.686 21.952 201.742 20.5867 203.172 19.52C204.622 18.4533 206.564 17.92 208.996 17.92C211.428 17.92 213.294 18.336 214.596 19.168C215.918 20 216.825 21.152 217.316 22.624C217.828 24.0747 218.083 25.728 218.083 27.584ZM238.534 48.64C236.102 48.64 234.235 48.224 232.934 47.392C231.633 46.5387 230.726 45.3867 230.214 43.936C229.702 42.4853 229.446 40.832 229.446 38.976V18.752H225.382V18.56H237.126V38.624C237.126 40.416 237.19 41.9733 237.318 43.296C237.467 44.6187 237.787 45.6427 238.278 46.368C238.769 47.0933 239.526 47.456 240.55 47.456C242.385 47.456 243.857 46.976 244.966 46.016C246.097 45.056 246.95 43.8187 247.526 42.304C248.102 40.7893 248.486 39.1893 248.678 37.504C248.87 35.8187 248.966 34.2613 248.966 32.832L249.158 32.608C249.158 34.1653 249.051 35.8613 248.838 37.696C248.625 39.5307 248.177 41.28 247.494 42.944C246.833 44.608 245.787 45.9733 244.358 47.04C242.929 48.1067 240.987 48.64 238.534 48.64ZM248.966 48V18.752H244.678V18.56H256.646V47.808H260.71V48H248.966ZM265.289 48.64V39.104H265.481C265.822 40.9173 266.547 42.528 267.657 43.936C268.787 45.3227 270.174 46.4213 271.817 47.232C273.481 48.0213 275.273 48.416 277.193 48.416C278.537 48.416 279.763 48.224 280.873 47.84C281.982 47.4347 282.867 46.8373 283.529 46.048C284.211 45.2373 284.553 44.2133 284.553 42.976C284.553 41.7173 284.105 40.7253 283.209 40C282.313 39.2747 281.161 38.6773 279.753 38.208C278.345 37.7173 276.841 37.2267 275.241 36.736C273.662 36.2453 272.169 35.6267 270.76 34.88C269.353 34.1333 268.201 33.1307 267.305 31.872C266.43 30.6133 265.993 28.9707 265.993 26.944C265.993 25.3867 266.355 23.9253 267.081 22.56C267.827 21.1947 268.905 20.096 270.312 19.264C271.742 18.4107 273.47 17.984 275.497 17.984C277.033 17.984 278.419 18.24 279.657 18.752C280.894 19.2427 281.971 19.8827 282.889 20.672L286.377 17.92H286.569V26.88H286.377C286.035 25.4293 285.385 24.0427 284.425 22.72C283.465 21.376 282.238 20.288 280.745 19.456C279.251 18.6027 277.523 18.176 275.561 18.176C274.323 18.176 273.246 18.3573 272.329 18.72C271.411 19.0827 270.697 19.6053 270.185 20.288C269.673 20.9493 269.417 21.728 269.417 22.624C269.417 23.84 269.875 24.8213 270.793 25.568C271.731 26.2933 272.937 26.9227 274.409 27.456C275.881 27.968 277.438 28.4907 279.081 29.024C280.723 29.536 282.281 30.176 283.753 30.944C285.225 31.712 286.43 32.7147 287.369 33.952C288.307 35.1893 288.777 36.7787 288.777 38.72C288.777 40.8107 288.243 42.6027 287.177 44.096C286.131 45.568 284.745 46.6987 283.017 47.488C281.31 48.256 279.454 48.64 277.449 48.64C275.806 48.64 274.27 48.3733 272.841 47.84C271.411 47.3067 270.153 46.56 269.065 45.6L265.481 48.64H265.289ZM329.4 49.952C327.651 49.952 326.147 49.5893 324.888 48.864C323.629 48.16 322.659 47.2427 321.976 46.112C321.293 44.9813 320.952 43.808 320.952 42.592C320.952 41.6107 321.155 40.768 321.56 40.064C321.944 39.36 322.456 38.8267 323.096 38.464C323.736 38.1013 324.419 37.92 325.144 37.92C325.784 37.92 326.424 38.08 327.064 38.4C327.704 38.6987 328.237 39.168 328.664 39.808C329.112 40.4267 329.336 41.216 329.336 42.176C329.336 43.072 329.133 43.8187 328.728 44.416C328.344 45.0133 327.832 45.4613 327.192 45.76C326.573 46.0587 325.891 46.208 325.144 46.208C324.504 46.208 323.864 46.0587 323.224 45.76C322.605 45.44 322.083 45.0133 321.656 44.48C321.229 43.9467 321.016 43.3173 321.016 42.592H321.144C321.144 43.488 321.336 44.3627 321.72 45.216C322.083 46.048 322.605 46.8053 323.288 47.488C323.992 48.1493 324.835 48.6827 325.816 49.088C326.797 49.4933 327.896 49.696 329.112 49.696C330.413 49.696 331.48 49.1307 332.312 48C333.165 46.8693 333.901 45.2693 334.52 43.2C335.16 41.1093 335.811 38.656 336.472 35.84L344.792 -3.8147e-06H351.896L343.576 37.12C342.872 38.3573 342.04 39.712 341.08 41.184C340.141 42.6347 339.085 44.032 337.912 45.376C336.739 46.6987 335.437 47.7867 334.008 48.64C332.6 49.5147 331.064 49.952 329.4 49.952ZM336.408 0.191998V-3.8147e-06H358.296V0.191998H336.408ZM379.389 48.64C378.28 48.64 377.245 48.4907 376.285 48.192C375.346 47.8933 374.578 47.3493 373.981 46.56C373.405 45.7493 373.117 44.608 373.117 43.136V28.512C373.117 26.976 372.989 25.4293 372.733 23.872C372.498 22.3147 371.976 21.0133 371.165 19.968C370.354 18.9227 369.096 18.4 367.389 18.4C366.237 18.4 365.074 18.5493 363.901 18.848C362.749 19.1253 361.672 19.5307 360.669 20.064C359.688 20.5973 358.888 21.248 358.269 22.016C357.672 22.784 357.373 23.6693 357.373 24.672H357.245C357.245 23.52 357.64 22.6027 358.429 21.92C359.218 21.216 360.114 20.864 361.117 20.864C362.162 20.864 363.101 21.184 363.933 21.824C364.786 22.464 365.213 23.3707 365.213 24.544C365.213 25.888 364.776 26.88 363.901 27.52C363.048 28.1387 362.12 28.448 361.117 28.448C359.986 28.448 359.048 28.128 358.301 27.488C357.554 26.8267 357.181 25.888 357.181 24.672C357.181 23.6053 357.501 22.6667 358.141 21.856C358.781 21.0453 359.656 20.3627 360.765 19.808C361.874 19.232 363.112 18.7947 364.477 18.496C365.864 18.1973 367.282 18.048 368.733 18.048C371.784 18.048 374.098 18.5493 375.677 19.552C377.256 20.5333 378.333 21.824 378.909 23.424C379.485 25.024 379.773 26.72 379.773 28.512V45.024C379.773 45.7707 379.933 46.4213 380.253 46.976C380.573 47.5093 381.17 47.776 382.045 47.776C382.749 47.776 383.549 47.4453 384.445 46.784C385.341 46.1013 386.066 45.1627 386.621 43.968L386.749 44.064C386.173 45.4507 385.224 46.56 383.901 47.392C382.6 48.224 381.096 48.64 379.389 48.64ZM364.061 48.64C361.288 48.64 359.069 47.936 357.405 46.528C355.762 45.0987 354.941 43.168 354.941 40.736C354.941 37.8773 356.146 35.68 358.557 34.144C360.968 32.608 364.445 31.84 368.989 31.84H376.093V32.032H369.597C367.805 32.032 366.376 32.4907 365.309 33.408C364.264 34.304 363.517 35.392 363.069 36.672C362.621 37.952 362.397 39.1573 362.397 40.288C362.397 41.3547 362.514 42.432 362.749 43.52C363.005 44.608 363.442 45.5253 364.061 46.272C364.68 47.0187 365.512 47.392 366.557 47.392C367.752 47.392 368.84 47.0187 369.821 46.272C370.824 45.504 371.624 44.32 372.221 42.72C372.818 41.0987 373.117 39.008 373.117 36.448H373.277C373.277 38.9013 372.957 41.0453 372.317 42.88C371.677 44.7147 370.685 46.1333 369.341 47.136C367.997 48.1387 366.237 48.64 364.061 48.64ZM399.073 18.56V47.808H402.753V48H388.481V47.808H392.449V18.752H388.481V18.56H399.073ZM418.625 27.584V47.808H422.593V48H408.321V47.808H411.969V28.128C411.969 26.336 411.894 24.7253 411.745 23.296C411.596 21.8667 411.254 20.736 410.721 19.904C410.209 19.072 409.398 18.656 408.289 18.656C406.241 18.656 404.598 19.168 403.361 20.192C402.124 21.1947 401.196 22.4853 400.577 24.064C399.98 25.6213 399.574 27.264 399.361 28.992C399.169 30.72 399.073 32.2987 399.073 33.728L398.913 33.984C398.913 32.4693 399.009 30.7947 399.201 28.96C399.393 27.104 399.82 25.344 400.481 23.68C401.164 21.9947 402.22 20.6187 403.649 19.552C405.1 18.464 407.062 17.92 409.537 17.92C411.99 17.92 413.868 18.336 415.169 19.168C416.492 20 417.398 21.152 417.889 22.624C418.38 24.0747 418.625 25.728 418.625 27.584ZM427.606 48.64V39.392H427.798C427.968 41.0987 428.598 42.6347 429.686 44C430.774 45.344 432.139 46.4107 433.782 47.2C435.424 47.9893 437.184 48.384 439.062 48.384C440.384 48.384 441.622 48.192 442.774 47.808C443.926 47.424 444.864 46.816 445.59 45.984C446.315 45.1307 446.678 44.0107 446.678 42.624C446.678 41.3227 446.24 40.2987 445.366 39.552C444.491 38.8053 443.35 38.1867 441.942 37.696C440.555 37.2053 439.072 36.7253 437.494 36.256C435.936 35.7867 434.454 35.2 433.046 34.496C431.659 33.7707 430.528 32.8 429.654 31.584C428.779 30.3467 428.342 28.7253 428.342 26.72C428.342 25.2693 428.683 23.8827 429.366 22.56C430.07 21.216 431.104 20.1173 432.47 19.264C433.835 18.4107 435.531 17.984 437.558 17.984C439.094 17.984 440.491 18.24 441.75 18.752C443.008 19.2427 444.096 19.904 445.014 20.736L448.15 17.92H448.342V26.88H448.15C447.979 25.472 447.435 24.1067 446.518 22.784C445.6 21.44 444.374 20.3413 442.838 19.488C441.323 18.6133 439.574 18.176 437.59 18.176C436.374 18.176 435.286 18.368 434.326 18.752C433.387 19.1147 432.64 19.648 432.086 20.352C431.531 21.0347 431.254 21.8667 431.254 22.848C431.254 24.0853 431.712 25.0773 432.63 25.824C433.568 26.5707 434.763 27.2107 436.214 27.744C437.686 28.2773 439.232 28.8 440.854 29.312C442.496 29.824 444.043 30.4533 445.494 31.2C446.966 31.9467 448.16 32.928 449.078 34.144C450.016 35.3387 450.486 36.9067 450.486 38.848C450.486 40.832 449.984 42.56 448.982 44.032C447.979 45.4827 446.635 46.6133 444.95 47.424C443.286 48.2347 441.43 48.64 439.382 48.64C437.76 48.64 436.235 48.3733 434.806 47.84C433.376 47.3067 432.128 46.5707 431.062 45.632L427.766 48.64H427.606ZM470.792 48.64C467.72 48.64 465.064 47.936 462.824 46.528C460.605 45.12 458.888 43.2533 457.672 40.928C456.456 38.6027 455.848 36.0533 455.848 33.28C455.848 30.5067 456.456 27.9573 457.672 25.632C458.888 23.3067 460.605 21.44 462.824 20.032C465.064 18.624 467.72 17.92 470.792 17.92C473.864 17.92 476.509 18.624 478.728 20.032C480.968 21.44 482.685 23.3067 483.88 25.632C485.096 27.9573 485.704 30.5067 485.704 33.28C485.704 36.0533 485.096 38.6027 483.88 40.928C482.685 43.2533 480.968 45.12 478.728 46.528C476.509 47.936 473.864 48.64 470.792 48.64ZM470.792 48.448C472.371 48.448 473.651 47.968 474.632 47.008C475.613 46.048 476.36 44.8107 476.872 43.296C477.384 41.76 477.725 40.1067 477.896 38.336C478.088 36.5653 478.184 34.88 478.184 33.28C478.184 31.6587 478.088 29.9733 477.896 28.224C477.725 26.4533 477.384 24.8107 476.872 23.296C476.36 21.76 475.613 20.512 474.632 19.552C473.651 18.592 472.371 18.112 470.792 18.112C469.192 18.112 467.901 18.592 466.92 19.552C465.939 20.512 465.192 21.76 464.68 23.296C464.168 24.8107 463.816 26.4533 463.624 28.224C463.453 29.9733 463.368 31.6587 463.368 33.28C463.368 34.88 463.453 36.5653 463.624 38.336C463.816 40.1067 464.168 41.76 464.68 43.296C465.192 44.8107 465.939 46.048 466.92 47.008C467.901 47.968 469.192 48.448 470.792 48.448ZM500.948 18.56V47.808H504.596V48H490.356V47.808H494.324V18.752H490.356V18.56H500.948ZM519.22 27.584V47.808H522.868V48H508.948V47.808H512.564V28.128C512.564 26.336 512.511 24.7253 512.404 23.296C512.297 21.8667 511.999 20.736 511.508 19.904C511.039 19.0507 510.271 18.624 509.204 18.624C507.455 18.624 506.036 19.136 504.948 20.16C503.86 21.1627 503.028 22.4427 502.452 24C501.876 25.5573 501.481 27.2 501.268 28.928C501.055 30.656 500.948 32.256 500.948 33.728L500.788 33.984C500.788 32.448 500.884 30.7627 501.076 28.928C501.268 27.0933 501.684 25.344 502.324 23.68C502.964 21.9947 503.935 20.6187 505.236 19.552C506.559 18.464 508.319 17.92 510.516 17.92C512.713 17.92 514.441 18.336 515.7 19.168C516.98 20 517.887 21.152 518.42 22.624C518.953 24.0747 519.22 25.728 519.22 27.584ZM537.46 27.584V47.808H541.396V48H527.156V47.808H530.804V28.128C530.804 26.336 530.74 24.7253 530.612 23.296C530.505 21.8667 530.217 20.736 529.748 19.904C529.279 19.0507 528.5 18.624 527.412 18.624C525.663 18.624 524.244 19.136 523.156 20.16C522.089 21.1627 521.268 22.4427 520.692 24C520.116 25.5573 519.721 27.2 519.508 28.928C519.316 30.656 519.22 32.256 519.22 33.728L519.06 33.984C519.06 32.448 519.156 30.7627 519.348 28.928C519.54 27.0933 519.945 25.344 520.564 23.68C521.204 21.9947 522.175 20.6187 523.476 19.552C524.777 18.464 526.527 17.92 528.724 17.92C530.943 17.92 532.681 18.336 533.94 19.168C535.22 20 536.127 21.152 536.66 22.624C537.193 24.0747 537.46 25.728 537.46 27.584ZM592.306 18.56V18.752H586.418L576.402 48.64H575.57L567.602 26.56L558.066 48.64H557.234L547.538 18.752H543.89V18.56H559.794V18.752H554.514L561.266 40.672L571.058 17.92H572.466L579.218 39.456L586.162 18.752H579.762V18.56H592.306ZM611.292 48.64C608.22 48.64 605.564 47.936 603.324 46.528C601.105 45.12 599.388 43.2533 598.172 40.928C596.956 38.6027 596.348 36.0533 596.348 33.28C596.348 30.5067 596.956 27.9573 598.172 25.632C599.388 23.3067 601.105 21.44 603.324 20.032C605.564 18.624 608.22 17.92 611.292 17.92C614.364 17.92 617.009 18.624 619.228 20.032C621.468 21.44 623.185 23.3067 624.38 25.632C625.596 27.9573 626.204 30.5067 626.204 33.28C626.204 36.0533 625.596 38.6027 624.38 40.928C623.185 43.2533 621.468 45.12 619.228 46.528C617.009 47.936 614.364 48.64 611.292 48.64ZM611.292 48.448C612.871 48.448 614.151 47.968 615.132 47.008C616.113 46.048 616.86 44.8107 617.372 43.296C617.884 41.76 618.225 40.1067 618.396 38.336C618.588 36.5653 618.684 34.88 618.684 33.28C618.684 31.6587 618.588 29.9733 618.396 28.224C618.225 26.4533 617.884 24.8107 617.372 23.296C616.86 21.76 616.113 20.512 615.132 19.552C614.151 18.592 612.871 18.112 611.292 18.112C609.692 18.112 608.401 18.592 607.42 19.552C606.439 20.512 605.692 21.76 605.18 23.296C604.668 24.8107 604.316 26.4533 604.124 28.224C603.953 29.9733 603.868 31.6587 603.868 33.28C603.868 34.88 603.953 36.5653 604.124 38.336C604.316 40.1067 604.668 41.76 605.18 43.296C605.692 44.8107 606.439 46.048 607.42 47.008C608.401 47.968 609.692 48.448 611.292 48.448ZM641.448 18.56V47.808H645.128V48H630.856V47.808H634.824V18.752H630.856V18.56H641.448ZM661 27.584V47.808H664.968V48H650.696V47.808H654.344V28.128C654.344 26.336 654.269 24.7253 654.12 23.296C653.971 21.8667 653.629 20.736 653.096 19.904C652.584 19.072 651.773 18.656 650.664 18.656C648.616 18.656 646.973 19.168 645.736 20.192C644.499 21.1947 643.571 22.4853 642.952 24.064C642.355 25.6213 641.949 27.264 641.736 28.992C641.544 30.72 641.448 32.2987 641.448 33.728L641.288 33.984C641.288 32.4693 641.384 30.7947 641.576 28.96C641.768 27.104 642.195 25.344 642.856 23.68C643.539 21.9947 644.595 20.6187 646.024 19.552C647.475 18.464 649.437 17.92 651.912 17.92C654.365 17.92 656.243 18.336 657.544 19.168C658.867 20 659.773 21.152 660.264 22.624C660.755 24.0747 661 25.728 661 27.584ZM682.845 64.64C680.989 64.64 679.207 64.48 677.501 64.16C675.794 63.84 674.269 63.328 672.925 62.624C671.602 61.9413 670.557 61.0667 669.789 60C669.021 58.9333 668.637 57.6533 668.637 56.16C668.637 54.752 668.978 53.5787 669.661 52.64C670.365 51.7013 671.239 50.9547 672.285 50.4C673.33 49.8453 674.386 49.4507 675.453 49.216C676.519 48.9813 677.415 48.864 678.141 48.864H678.269C676.989 49.6533 676.167 50.5813 675.805 51.648C675.463 52.7147 675.293 53.984 675.293 55.456C675.293 56.8213 675.581 58.1867 676.157 59.552C676.754 60.9173 677.682 62.0587 678.941 62.976C680.199 63.8933 681.81 64.352 683.773 64.352C685.394 64.352 686.93 64.128 688.381 63.68C689.853 63.2533 691.154 62.6347 692.285 61.824C693.415 61.0133 694.301 60.032 694.941 58.88C695.602 57.7493 695.933 56.4907 695.933 55.104C695.933 53.7173 695.527 52.576 694.717 51.68C693.927 50.8053 692.893 50.144 691.613 49.696C690.354 49.248 689.031 49.024 687.645 49.024C687.197 49.024 686.493 49.024 685.533 49.024C684.594 49.024 683.645 49.024 682.685 49.024C681.746 49.024 681.042 49.024 680.573 49.024C677.586 49.024 675.186 48.5973 673.373 47.744C671.581 46.8907 670.685 45.5147 670.685 43.616C670.685 42.464 670.994 41.4827 671.613 40.672C672.231 39.8613 673.074 39.2 674.141 38.688C675.229 38.176 676.455 37.8027 677.821 37.568C679.207 37.3333 680.658 37.216 682.173 37.216V37.376C681.511 37.376 680.786 37.44 679.997 37.568C679.229 37.696 678.493 37.9093 677.789 38.208C677.085 38.5067 676.509 38.8907 676.061 39.36C675.613 39.808 675.389 40.3627 675.389 41.024C675.389 42.0693 675.965 42.7093 677.117 42.944C678.29 43.1787 679.751 43.296 681.501 43.296C682.247 43.296 682.898 43.296 683.453 43.296C684.007 43.2747 684.541 43.264 685.053 43.264C685.586 43.2427 686.151 43.232 686.749 43.232C687.943 43.232 689.138 43.3493 690.333 43.584C691.549 43.8187 692.647 44.288 693.629 44.992C694.61 45.6747 695.399 46.6773 695.997 48C696.594 49.3227 696.893 51.072 696.893 53.248C696.893 55.1893 696.519 56.864 695.773 58.272C695.026 59.7013 693.991 60.8853 692.669 61.824C691.367 62.7627 689.874 63.4667 688.189 63.936C686.503 64.4053 684.722 64.64 682.845 64.64ZM682.141 37.376C680.775 37.376 679.389 37.2053 677.981 36.864C676.594 36.5013 675.314 35.936 674.141 35.168C672.967 34.4 672.018 33.3973 671.293 32.16C670.589 30.9227 670.237 29.4187 670.237 27.648C670.237 25.8773 670.589 24.384 671.293 23.168C672.018 21.9307 672.967 20.928 674.141 20.16C675.314 19.392 676.594 18.8373 677.981 18.496C679.389 18.1333 680.775 17.952 682.141 17.952C683.485 17.952 684.839 18.1333 686.205 18.496C687.591 18.8373 688.85 19.392 689.981 20.16C691.111 20.928 692.018 21.9307 692.701 23.168C693.405 24.384 693.757 25.8773 693.757 27.648C693.757 29.4187 693.405 30.9227 692.701 32.16C692.018 33.3973 691.111 34.4 689.981 35.168C688.85 35.936 687.591 36.5013 686.205 36.864C684.839 37.2053 683.485 37.376 682.141 37.376ZM682.141 37.184C683.293 37.184 684.231 36.7253 684.957 35.808C685.682 34.8693 686.215 33.6747 686.557 32.224C686.898 30.7733 687.069 29.248 687.069 27.648C687.069 26.0267 686.898 24.4907 686.557 23.04C686.215 21.5893 685.682 20.416 684.957 19.52C684.231 18.6027 683.293 18.144 682.141 18.144C680.989 18.144 680.05 18.6027 679.325 19.52C678.599 20.416 678.055 21.5893 677.693 23.04C677.351 24.4907 677.181 26.0267 677.181 27.648C677.181 29.248 677.266 30.7733 677.437 32.224C677.629 33.6747 678.077 34.8693 678.781 35.808C679.485 36.7253 680.605 37.184 682.141 37.184ZM699.708 27.04C698.834 27.04 698.034 26.7413 697.309 26.144C696.605 25.5467 696.253 24.6933 696.253 23.584C696.253 22.4533 696.615 21.6427 697.341 21.152C698.087 20.64 698.877 20.384 699.708 20.384C700.541 20.384 701.341 20.64 702.109 21.152C702.877 21.6427 703.261 22.3573 703.261 23.296H703.133C703.133 22.1227 702.685 21.024 701.789 20C700.914 18.9547 699.634 18.432 697.949 18.432C697.031 18.432 696.039 18.656 694.973 19.104C693.906 19.5307 692.914 20.2773 691.997 21.344C691.101 22.3893 690.439 23.8613 690.013 25.76L689.853 25.728C690.279 23.7653 690.962 22.2507 691.901 21.184C692.839 20.096 693.853 19.3387 694.941 18.912C696.05 18.464 697.053 18.24 697.949 18.24C699.079 18.24 700.039 18.4853 700.829 18.976C701.639 19.4667 702.258 20.1067 702.685 20.896C703.111 21.664 703.325 22.464 703.325 23.296C703.325 24.7253 702.941 25.7067 702.173 26.24C701.405 26.7733 700.583 27.04 699.708 27.04Z" fill="#101214"/>
</svg>
