<svg width="98" height="25" viewBox="0 0 98 25" fill="none" xmlns="http://www.w3.org/2000/svg">
<path d="M11.024 -1.90735e-06C13.008 -1.90735e-06 14.6347 0.277332 15.904 0.831999C17.1733 1.376 18.112 2.15467 18.72 3.168C19.328 4.17067 19.632 5.36533 19.632 6.752C19.632 8.13867 19.328 9.31733 18.72 10.288C18.112 11.2587 17.1733 12 15.904 12.512C14.6453 13.0133 13.0133 13.264 11.008 13.264H7.696V23.808H10.56V24H0.624V23.808H3.488V0.191999H0.624V-1.90735e-06H11.024ZM7.696 13.072H10.624C11.3493 13.072 11.9787 12.88 12.512 12.496C13.056 12.112 13.504 11.6053 13.856 10.976C14.2187 10.3467 14.4907 9.664 14.672 8.928C14.8533 8.192 14.944 7.46667 14.944 6.752C14.944 6.03733 14.8533 5.30133 14.672 4.544C14.4907 3.776 14.2187 3.06133 13.856 2.4C13.504 1.73867 13.056 1.20533 12.512 0.799999C11.9787 0.394666 11.3493 0.191999 10.624 0.191999H7.696V13.072ZM29.9295 24.32C28.4788 24.32 27.1722 24.0213 26.0095 23.424C24.8575 22.816 23.9455 21.9413 23.2735 20.8C22.6015 19.6587 22.2655 18.272 22.2655 16.64C22.2655 15.008 22.5908 13.6213 23.2415 12.48C23.8922 11.3387 24.7882 10.4693 25.9295 9.872C27.0708 9.264 28.3668 8.96 29.8175 8.96C31.4068 8.96 32.7028 9.28 33.7055 9.92C34.7082 10.5493 35.4442 11.376 35.9135 12.4C36.3935 13.4133 36.6335 14.5013 36.6335 15.664H24.4095V15.472H32.4255C32.4255 14.8213 32.3988 14.1333 32.3455 13.408C32.2922 12.672 32.1802 11.984 32.0095 11.344C31.8388 10.6933 31.5775 10.1653 31.2255 9.76C30.8735 9.35467 30.4042 9.152 29.8175 9.152C29.1775 9.152 28.6442 9.36 28.2175 9.776C27.8015 10.1813 27.4708 10.736 27.2255 11.44C26.9908 12.1333 26.8255 12.912 26.7295 13.776C26.6335 14.64 26.5855 15.5307 26.5855 16.448C26.5855 17.4293 26.6388 18.3787 26.7455 19.296C26.8522 20.2027 27.0442 21.0133 27.3215 21.728C27.6095 22.432 28.0095 22.992 28.5215 23.408C29.0335 23.824 29.6842 24.032 30.4735 24.032C32.0202 24.032 33.3108 23.5947 34.3455 22.72C35.3802 21.8453 36.0948 20.768 36.4895 19.488H36.6975C36.2815 20.864 35.5188 22.016 34.4095 22.944C33.3002 23.8613 31.8068 24.32 29.9295 24.32ZM51.7943 24.32C51.1863 24.32 50.6263 24.2347 50.1143 24.064C49.6129 23.904 49.2076 23.6213 48.8983 23.216C48.5996 22.8107 48.4503 22.2507 48.4503 21.536V14.256C48.4503 13.488 48.3863 12.72 48.2583 11.952C48.1303 11.184 47.8529 10.5493 47.4263 10.048C47.0103 9.536 46.3756 9.28 45.5223 9.28C44.9889 9.28 44.4343 9.34933 43.8583 9.488C43.2929 9.616 42.7596 9.808 42.2583 10.064C41.7569 10.32 41.3516 10.64 41.0423 11.024C40.7329 11.408 40.5783 11.8613 40.5783 12.384H40.3863C40.3863 11.7653 40.6049 11.2693 41.0423 10.896C41.4903 10.5227 42.0023 10.336 42.5783 10.336C43.1756 10.336 43.7089 10.5067 44.1783 10.848C44.6476 11.1893 44.8823 11.68 44.8823 12.32C44.8823 13.0347 44.6423 13.568 44.1623 13.92C43.6823 14.2613 43.1543 14.432 42.5783 14.432C41.9383 14.432 41.4049 14.256 40.9783 13.904C40.5623 13.5413 40.3543 13.0347 40.3543 12.384C40.3543 11.8293 40.5196 11.344 40.8503 10.928C41.1916 10.5013 41.6449 10.1493 42.2103 9.872C42.7756 9.59467 43.4049 9.38667 44.0983 9.248C44.8023 9.09867 45.5169 9.024 46.2423 9.024C47.8103 9.024 49.0316 9.264 49.9063 9.744C50.7809 10.224 51.3943 10.864 51.7463 11.664C52.0983 12.4533 52.2743 13.3173 52.2743 14.256V22.416C52.2743 22.7787 52.3543 23.0933 52.5143 23.36C52.6849 23.616 52.9836 23.744 53.4103 23.744C53.7196 23.744 54.0929 23.5947 54.5303 23.296C54.9676 22.9973 55.3196 22.56 55.5863 21.984L55.7143 22.112C55.4049 22.7947 54.9036 23.3333 54.2103 23.728C53.5169 24.1227 52.7116 24.32 51.7943 24.32ZM43.7943 24.32C42.4076 24.32 41.2983 23.968 40.4663 23.264C39.6449 22.5493 39.2343 21.584 39.2343 20.368C39.2343 18.9387 39.8423 17.84 41.0583 17.072C42.2743 16.2933 44.0183 15.904 46.2903 15.904H49.9383V16.08H46.9462C46.0823 16.08 45.3943 16.2987 44.8823 16.736C44.3809 17.1627 44.0183 17.6853 43.7943 18.304C43.5703 18.9227 43.4583 19.5093 43.4583 20.064C43.4583 20.576 43.5169 21.0827 43.6343 21.584C43.7623 22.0853 43.9703 22.5013 44.2583 22.832C44.5569 23.1627 44.9463 23.328 45.4263 23.328C45.9703 23.328 46.4716 23.1467 46.9303 22.784C47.3889 22.4213 47.7569 21.8667 48.0343 21.12C48.3116 20.3627 48.4503 19.392 48.4503 18.208H48.5943C48.5943 19.456 48.4183 20.5387 48.0663 21.456C47.7143 22.3733 47.1863 23.0827 46.4823 23.584C45.7783 24.0747 44.8823 24.32 43.7943 24.32ZM62.2948 16.976C62.2948 15.92 62.3641 14.912 62.5028 13.952C62.6521 12.992 62.8921 12.1387 63.2228 11.392C63.5534 10.6453 64.0014 10.0533 64.5668 9.616C65.1428 9.17867 65.8574 8.96 66.7108 8.96C67.3934 8.96 67.9694 9.10933 68.4388 9.408C68.9188 9.696 69.2868 10.0693 69.5428 10.528C69.7988 10.9867 69.9268 11.4827 69.9268 12.016C69.9268 12.6773 69.7134 13.248 69.2868 13.728C68.8708 14.1973 68.3054 14.432 67.5908 14.432C66.8654 14.432 66.2841 14.2187 65.8468 13.792C65.4201 13.3653 65.2068 12.8533 65.2068 12.256C65.2068 11.5413 65.4361 10.9707 65.8948 10.544C66.3641 10.1173 66.9188 9.904 67.5588 9.904C68.0068 9.904 68.4068 10.0053 68.7588 10.208C69.1108 10.4 69.3881 10.656 69.5908 10.976C69.7934 11.296 69.8948 11.6427 69.8948 12.016H69.7188C69.7188 11.5147 69.5961 11.0507 69.3508 10.624C69.1054 10.1867 68.7588 9.83467 68.3108 9.568C67.8628 9.29067 67.3241 9.152 66.6948 9.152C65.8841 9.152 65.2014 9.36533 64.6468 9.792C64.1028 10.2187 63.6654 10.8 63.3348 11.536C63.0148 12.272 62.7854 13.1093 62.6468 14.048C62.5081 14.976 62.4388 15.952 62.4388 16.976H62.2948ZM62.4388 9.28V23.808H64.6628V24H56.5668V23.808H58.6148V9.472H56.5668V9.28H62.4388ZM81.7625 24.976C80.8878 24.976 80.1358 24.7947 79.5065 24.432C78.8772 24.08 78.3918 23.6213 78.0505 23.056C77.7092 22.4907 77.5385 21.904 77.5385 21.296C77.5385 20.8053 77.6398 20.384 77.8425 20.032C78.0345 19.68 78.2905 19.4133 78.6105 19.232C78.9305 19.0507 79.2718 18.96 79.6345 18.96C79.9545 18.96 80.2745 19.04 80.5945 19.2C80.9145 19.3493 81.1812 19.584 81.3945 19.904C81.6185 20.2133 81.7305 20.608 81.7305 21.088C81.7305 21.536 81.6292 21.9093 81.4265 22.208C81.2345 22.5067 80.9785 22.7307 80.6585 22.88C80.3492 23.0293 80.0078 23.104 79.6345 23.104C79.3252 23.104 79.0105 23.0293 78.6905 22.88C78.3705 22.72 78.1038 22.5067 77.8905 22.24C77.6772 21.9733 77.5705 21.6587 77.5705 21.296H77.7305C77.7305 21.7333 77.8265 22.16 78.0185 22.576C78.1998 22.9813 78.4612 23.3493 78.8025 23.68C79.1438 24.0107 79.5492 24.272 80.0185 24.464C80.4985 24.656 81.0265 24.752 81.6025 24.752C82.2638 24.752 82.8025 24.48 83.2185 23.936C83.6345 23.3813 84.0025 22.592 84.3225 21.568C84.6425 20.544 84.9678 19.328 85.2985 17.92L89.4585 -1.90735e-06H93.0105L88.8505 18.56C88.4985 19.1787 88.0825 19.856 87.6025 20.592C87.1332 21.3173 86.6052 22.016 86.0185 22.688C85.4318 23.3493 84.7812 23.8933 84.0665 24.32C83.3625 24.7573 82.5945 24.976 81.7625 24.976ZM85.2505 0.191999V-1.90735e-06H96.2105V0.191999H85.2505ZM95.781 24.32C95.3757 24.32 95.0077 24.2187 94.677 24.016C94.3463 23.824 94.0797 23.5627 93.877 23.232C93.6743 22.9013 93.573 22.5333 93.573 22.128C93.573 21.7227 93.6743 21.3547 93.877 21.024C94.0797 20.6933 94.3463 20.432 94.677 20.24C95.0077 20.0373 95.3757 19.936 95.781 19.936C96.1863 19.936 96.5543 20.0373 96.885 20.24C97.2157 20.432 97.477 20.6933 97.669 21.024C97.861 21.3547 97.957 21.7227 97.957 22.128C97.957 22.5333 97.861 22.9013 97.669 23.232C97.477 23.5627 97.2157 23.824 96.885 24.016C96.5543 24.2187 96.1863 24.32 95.781 24.32Z" fill="#101214"/>
</svg>
